<?xml version="1.0" standalone="no"?>
<!DOCTYPE svg PUBLIC "-//W3C//DTD SVG 20010904//EN"
 "http://www.w3.org/TR/2001/REC-SVG-20010904/DTD/svg10.dtd">
<svg version="1.0" xmlns="http://www.w3.org/2000/svg"
 width="1024.000000pt" height="1024.000000pt" viewBox="0 0 1024.000000 1024.000000"
 preserveAspectRatio="xMidYMid meet">
<metadata>
Created by potrace 1.11, written by Peter Selinger 2001-2013
</metadata>
<g transform="translate(0.000000,1024.000000) scale(0.100000,-0.100000)"
fill="#000000" stroke="none">
<path d="M4776 10229 c-1542 -98 -2961 -903 -3865 -2192 -195 -277 -430 -715
-554 -1032 -475 -1211 -475 -2549 0 -3760 77 -196 263 -570 376 -757 817
-1348 2191 -2242 3747 -2437 764 -96 1522 -21 2255 224 653 218 1220 542 1745
999 1966 1711 2324 4648 827 6781 -835 1191 -2128 1969 -3561 2145 -313 38
-659 49 -970 29z"/>
</g>
</svg>
