<?xml version="1.0" standalone="no"?>
<!DOCTYPE svg PUBLIC "-//W3C//DTD SVG 20010904//EN"
 "http://www.w3.org/TR/2001/REC-SVG-20010904/DTD/svg10.dtd">
<svg version="1.0" xmlns="http://www.w3.org/2000/svg"
 width="1022.000000pt" height="1022.000000pt" viewBox="0 0 1022.000000 1022.000000"
 preserveAspectRatio="xMidYMid meet">
<metadata>
Created by potrace 1.11, written by Peter Selinger 2001-2013
</metadata>
<g transform="translate(0.000000,1022.000000) scale(0.100000,-0.100000)"
fill="#000000" stroke="none">
<path d="M1189 6366 c-2 -2 -29 -7 -60 -10 -55 -6 -69 -9 -134 -22 -61 -12
-199 -56 -254 -81 -31 -15 -58 -27 -61 -27 -24 -5 -157 -90 -219 -140 -234
-189 -367 -412 -429 -716 -28 -140 -27 -365 2 -536 18 -101 75 -254 134 -359
78 -139 222 -297 352 -385 316 -215 753 -289 1145 -195 372 88 656 300 821
612 55 103 103 241 119 343 3 19 9 60 14 90 15 92 6 333 -17 445 -50 246 -151
436 -322 606 -105 104 -225 190 -344 244 -86 40 -233 90 -291 99 -21 4 -47 8
-59 11 -12 3 -34 7 -51 10 -36 7 -340 16 -346 11z"/>
<path d="M4988 6365 c-1 -1 -34 -6 -73 -10 -146 -14 -356 -81 -491 -155 -124
-68 -283 -202 -369 -310 -27 -35 -95 -138 -95 -146 0 -3 -10 -20 -22 -37 -13
-18 -22 -34 -21 -37 1 -3 -7 -25 -18 -50 -26 -59 -65 -197 -80 -285 -14 -78
-17 -319 -7 -406 72 -573 520 -998 1123 -1065 85 -10 280 -10 355 0 377 47
689 218 894 490 54 72 156 260 156 287 0 8 4 19 9 25 5 5 17 43 27 84 22 89
21 87 41 220 5 40 5 251 -2 293 -3 20 -7 54 -10 74 -53 371 -297 708 -635 878
-70 35 -186 83 -220 90 -8 2 -41 10 -73 19 -32 8 -75 18 -95 21 -21 3 -49 8
-62 11 -27 6 -326 14 -332 9z"/>
<path d="M8778 6364 c-2 -1 -32 -5 -68 -9 -36 -4 -74 -9 -85 -12 -11 -2 -33
-7 -50 -10 -86 -15 -347 -115 -375 -143 -3 -3 -16 -11 -30 -18 -51 -26 -166
-118 -235 -188 -251 -252 -371 -625 -331 -1024 21 -208 96 -415 209 -578 156
-225 427 -407 717 -482 50 -14 57 -15 120 -25 25 -3 59 -9 75 -12 49 -9 260
-10 332 -2 190 21 357 69 507 146 225 116 408 299 519 519 31 60 94 225 95
247 0 4 3 20 6 35 26 126 29 158 29 307 0 155 -18 276 -59 405 -164 520 -654
850 -1256 847 -65 0 -119 -1 -120 -3z"/>
</g>
</svg>
