<?xml version="1.0" standalone="no"?>
<!DOCTYPE svg PUBLIC "-//W3C//DTD SVG 20010904//EN"
 "http://www.w3.org/TR/2001/REC-SVG-20010904/DTD/svg10.dtd">
<svg version="1.0" xmlns="http://www.w3.org/2000/svg"
 width="1024.000000pt" height="1024.000000pt" viewBox="0 0 1024.000000 1024.000000"
 preserveAspectRatio="xMidYMid meet">
<metadata>
Created by potrace 1.11, written by Peter Selinger 2001-2013
</metadata>
<g transform="translate(0.000000,1024.000000) scale(0.100000,-0.100000)"
fill="#000000" stroke="none">
<path d="M5049 10183 c-1 -32 -2 -85 -4 -118 -1 -33 -6 -148 -9 -255 -4 -107
-9 -240 -11 -295 -2 -55 -7 -176 -10 -270 -3 -93 -8 -217 -10 -275 -2 -58 -7
-177 -10 -265 -3 -88 -8 -223 -11 -300 -3 -77 -7 -196 -9 -265 -8 -226 -15
-443 -20 -555 -6 -154 -20 -533 -31 -840 -3 -99 -7 -205 -9 -235 -2 -30 -4
-83 -4 -116 l-1 -62 -116 -46 c-63 -26 -119 -44 -124 -41 -5 3 -30 36 -56 73
-26 37 -51 69 -54 72 -6 5 -218 294 -265 360 -11 16 -135 185 -275 375 -374
508 -384 521 -462 630 -40 55 -75 102 -78 105 -4 3 -45 59 -93 125 -91 126
-264 362 -297 405 -17 22 -60 82 -283 385 -44 61 -124 169 -257 350 -20 28
-71 96 -112 152 l-75 103 -44 -63 c-24 -34 -49 -68 -56 -75 -7 -8 -18 -23 -24
-34 -6 -11 -17 -27 -25 -36 -11 -14 -638 -875 -726 -997 -15 -22 -36 -51 -46
-64 -9 -13 -236 -326 -505 -694 -268 -369 -494 -680 -502 -692 -8 -11 -49 -66
-90 -123 -73 -99 -74 -103 -53 -111 13 -5 77 -27 143 -49 66 -23 221 -76 345
-118 124 -42 295 -101 380 -130 85 -29 313 -106 505 -172 193 -66 400 -136
460 -157 61 -20 119 -40 130 -45 11 -5 70 -25 130 -45 61 -20 274 -93 475
-162 201 -69 435 -149 520 -178 85 -29 245 -83 355 -120 110 -37 205 -72 211
-77 8 -6 12 -51 11 -134 0 -104 -3 -126 -16 -133 -9 -5 -63 -24 -121 -44 -101
-34 -249 -86 -665 -232 -104 -36 -228 -79 -275 -95 -47 -16 -137 -47 -200 -70
-63 -23 -122 -43 -130 -45 -8 -2 -80 -27 -160 -55 -80 -28 -163 -58 -185 -65
-22 -7 -139 -48 -260 -90 -121 -42 -323 -113 -450 -157 -126 -44 -279 -97
-340 -118 -60 -21 -209 -73 -330 -115 -121 -42 -258 -90 -305 -106 -47 -17
-120 -42 -163 -57 -42 -14 -77 -30 -77 -35 0 -6 284 -409 404 -572 34 -46 342
-474 374 -520 20 -27 81 -113 137 -191 56 -77 118 -163 137 -190 19 -27 93
-130 165 -229 457 -636 608 -846 697 -970 134 -187 145 -200 155 -189 5 5 76
101 158 214 127 175 1025 1403 1575 2155 93 127 201 274 240 328 39 54 76 104
82 111 6 6 16 19 21 28 12 21 246 338 248 338 1 0 36 -10 77 -21 41 -11 93
-25 114 -30 74 -18 70 -8 72 -211 2 -173 12 -997 19 -1598 2 -151 6 -518 10
-815 4 -297 8 -668 10 -825 2 -157 4 -333 4 -392 l1 -108 34 0 c19 0 81 15
138 34 115 38 510 165 873 281 132 43 272 87 310 100 39 13 165 53 280 90 116
37 248 80 295 95 47 15 123 40 170 55 107 33 523 167 780 250 107 35 268 87
358 115 90 29 162 55 160 59 -4 9 -63 94 -163 234 -75 105 -392 552 -425 600
-8 12 -64 92 -124 177 -60 85 -213 301 -338 480 -126 179 -236 334 -244 345
-8 11 -62 88 -120 170 -58 83 -112 159 -120 170 -8 11 -143 202 -300 425 -156
223 -296 421 -310 440 -14 19 -50 70 -80 112 l-55 78 72 120 c39 66 74 118 78
116 3 -2 71 -24 151 -50 80 -26 226 -73 325 -105 179 -59 602 -196 1225 -398
179 -57 343 -111 365 -118 22 -8 222 -73 445 -145 223 -72 506 -165 630 -205
418 -136 570 -185 579 -185 5 0 8 808 8 1795 0 1650 -1 1794 -16 1786 -9 -5
-18 -9 -21 -9 -3 1 -79 -23 -170 -51 -91 -29 -201 -64 -245 -78 -44 -14 -100
-32 -125 -40 -25 -8 -79 -25 -120 -38 -41 -13 -147 -47 -235 -75 -176 -56
-226 -72 -685 -218 -173 -55 -423 -135 -555 -177 -132 -42 -280 -89 -330 -105
-49 -16 -346 -110 -658 -209 -313 -100 -574 -178 -580 -174 -7 4 -23 20 -36
36 -14 16 -30 34 -36 41 -50 53 -86 107 -78 119 5 6 108 147 229 312 120 165
222 305 227 310 4 6 86 116 180 245 95 130 181 248 192 262 11 14 27 36 35 48
22 32 109 151 131 180 11 14 56 75 100 135 96 131 124 170 216 295 38 52 112
153 164 224 52 71 130 178 174 237 44 59 87 117 95 129 8 12 31 43 50 69 107
144 357 485 370 505 8 12 50 70 94 128 43 59 79 110 80 113 0 4 -125 49 -279
100 -807 267 -2153 712 -2245 742 -58 19 -112 37 -120 40 -8 3 -19 7 -25 9 -5
1 -154 50 -330 108 -175 58 -332 106 -347 106 -27 0 -28 -1 -29 -57z"/>
</g>
</svg>
