<?xml version="1.0" standalone="no"?>
<!DOCTYPE svg PUBLIC "-//W3C//DTD SVG 20010904//EN"
 "http://www.w3.org/TR/2001/REC-SVG-20010904/DTD/svg10.dtd">
<svg version="1.0" xmlns="http://www.w3.org/2000/svg"
 width="1024.000000pt" height="1024.000000pt" viewBox="0 0 1024.000000 1024.000000"
 preserveAspectRatio="xMidYMid meet">
<metadata>
Created by potrace 1.11, written by Peter Selinger 2001-2013
</metadata>
<g transform="translate(0.000000,1024.000000) scale(0.100000,-0.100000)"
fill="#000000" stroke="none">
<path d="M593 8977 c-17 -61 -63 -222 -103 -357 -39 -135 -75 -258 -80 -275
-9 -36 -103 -358 -240 -830 -57 -192 -109 -374 -117 -403 l-14 -54 300 -296
c1294 -1282 1651 -1639 1651 -1653 0 -15 -104 -122 -495 -505 -99 -97 -380
-372 -624 -612 -244 -241 -531 -523 -638 -628 l-196 -191 33 -114 c18 -63 40
-141 51 -174 10 -33 34 -114 53 -180 19 -66 60 -208 91 -315 32 -107 66 -224
76 -260 23 -85 269 -929 286 -981 4 -13 58 17 256 140 139 87 291 182 339 212
49 30 197 122 330 205 231 144 538 335 895 558 90 55 211 131 270 168 60 37
124 77 143 88 19 11 83 51 142 88 169 105 523 326 893 557 414 258 1023 637
1102 686 l58 36 0 1209 c1 665 -1 1216 -3 1224 -2 9 -24 28 -50 43 -26 15 -77
46 -114 70 -261 164 -660 414 -675 422 -10 6 -38 24 -63 40 -25 16 -57 36 -71
45 -15 8 -306 191 -648 405 -342 215 -632 397 -646 405 -14 8 -129 80 -255
160 -127 80 -238 150 -247 155 -10 6 -136 84 -281 175 -144 91 -316 199 -383
240 -375 234 -702 439 -759 475 -160 103 -214 135 -224 135 -6 0 -25 -51 -43
-113z"/>
<path d="M5836 8863 c-10 -32 -23 -78 -31 -103 -7 -25 -65 -211 -129 -415 -65
-203 -135 -428 -157 -500 -22 -71 -46 -148 -54 -170 -7 -22 -41 -130 -75 -240
-34 -110 -65 -211 -70 -225 -44 -125 -90 -294 -82 -299 5 -3 56 -49 112 -101
57 -52 117 -108 134 -123 17 -16 54 -50 81 -75 49 -45 257 -236 279 -257 161
-147 263 -242 272 -250 6 -5 60 -55 119 -110 60 -55 116 -107 125 -115 9 -8
65 -60 125 -115 60 -55 119 -109 131 -120 12 -11 44 -40 71 -65 27 -25 102
-94 166 -154 65 -60 126 -117 136 -125 109 -95 191 -178 191 -193 0 -16 -24
-42 -114 -123 -12 -11 -65 -58 -116 -105 -51 -47 -105 -95 -119 -108 -14 -13
-44 -40 -66 -61 -22 -20 -116 -106 -210 -191 -93 -85 -188 -171 -210 -191 -22
-21 -52 -48 -66 -61 -14 -12 -67 -61 -119 -108 -51 -47 -104 -96 -119 -109
-88 -79 -117 -106 -216 -196 -60 -55 -115 -104 -121 -110 -6 -5 -55 -50 -109
-100 -54 -49 -107 -98 -119 -108 -73 -64 -246 -225 -246 -230 0 -1 13 -42 29
-92 16 -49 59 -187 96 -305 37 -118 94 -300 127 -404 33 -103 61 -196 63 -205
2 -9 25 -81 50 -161 26 -80 69 -216 96 -303 27 -86 72 -230 100 -320 28 -89
54 -172 56 -184 3 -13 7 -23 10 -23 4 0 94 53 153 90 43 28 269 165 295 180
61 35 501 303 527 321 15 11 31 19 37 19 5 0 11 3 13 8 2 4 19 16 38 26 19 11
58 34 85 51 28 18 253 155 500 305 248 150 469 284 492 299 22 14 54 33 70 42
15 9 87 52 158 96 72 44 454 277 850 518 1050 638 1130 687 1133 690 2 2 4
529 4 1170 0 973 -2 1169 -13 1176 -50 31 -704 427 -726 439 -16 8 -30 17 -33
20 -3 3 -17 12 -32 20 -15 8 -130 77 -255 153 -126 76 -419 253 -653 395 -234
141 -742 448 -1128 682 -387 234 -715 432 -730 441 -15 9 -192 116 -394 238
-202 122 -373 224 -381 227 -10 3 -19 -12 -31 -53z"/>
</g>
</svg>
